<svg width="751" height="269" viewBox="0 0 751 269" fill="none" xmlns="http://www.w3.org/2000/svg">
<g clip-path="url(#clip0_5333_104481)">
<path d="M0.01 268.87V249.78H6.17C7.15 249.78 8.01 249.91 8.74 250.17C9.47 250.44 10.07 250.83 10.54 251.36C11.01 251.89 11.35 252.53 11.58 253.29C11.81 254.06 11.92 254.94 11.92 255.94C11.92 256.94 11.79 257.84 11.54 258.65C11.29 259.46 10.9 260.15 10.4 260.73C9.89 261.31 9.24 261.75 8.46 262.05C7.68 262.36 6.78 262.51 5.76 262.51H2.37V268.87H0H0.01ZM2.38 260.42H5.77C6.54 260.42 7.17 260.32 7.68 260.1C8.19 259.89 8.58 259.58 8.85 259.18C9.12 258.78 9.31 258.32 9.41 257.79C9.51 257.26 9.56 256.65 9.56 255.93C9.56 255.21 9.5 254.61 9.38 254.1C9.26 253.59 9.07 253.17 8.81 252.84C8.55 252.51 8.18 252.26 7.71 252.1C7.24 251.94 6.66 251.86 5.97 251.86H2.38V260.41V260.42Z" fill="#141B30"/>
<path d="M22.75 268.87V268.67C23.17 266.89 23.66 265.06 24.2 263.18C24.74 261.31 25.31 259.5 25.91 257.77C26.5 256.04 27.08 254.48 27.63 253.1C28.18 251.72 28.68 250.61 29.12 249.78H32.23C32.67 250.61 33.17 251.72 33.72 253.1C34.27 254.48 34.84 256.04 35.44 257.77C36.03 259.5 36.6 261.31 37.15 263.19C37.69 265.08 38.18 266.9 38.6 268.66V268.86H36.21C36.17 268.69 36.09 268.33 35.95 267.79C35.81 267.25 35.7 266.79 35.61 266.43C35.52 266.06 35.42 265.69 35.32 265.31C35.22 264.93 35.12 264.55 35.01 264.18H26.22C26.12 264.55 26.02 264.94 25.92 265.34C25.82 265.74 25.72 266.13 25.61 266.51C25.51 266.89 25.41 267.28 25.33 267.67C25.25 268.06 25.15 268.46 25.05 268.86H22.75V268.87ZM30.62 251.76C30.28 252.41 29.94 253.12 29.6 253.91C29.26 254.7 28.93 255.54 28.62 256.42C28.31 257.3 28 258.21 27.69 259.16C27.38 260.1 27.09 261.08 26.8 262.1H34.41C34.12 261.1 33.83 260.13 33.53 259.18C33.23 258.24 32.92 257.33 32.6 256.44C32.28 255.56 31.95 254.72 31.62 253.94C31.29 253.15 30.95 252.42 30.61 251.76H30.62Z" fill="#141B30"/>
<path d="M51.53 268.87V249.78H57.69C58.69 249.78 59.55 249.9 60.28 250.12C61 250.35 61.6 250.7 62.06 251.16C62.53 251.63 62.87 252.23 63.1 252.96C63.33 253.69 63.44 254.55 63.44 255.56C63.44 256.31 63.36 256.97 63.2 257.56C63.04 258.14 62.81 258.65 62.51 259.09C62.21 259.52 61.85 259.89 61.43 260.2C61 260.5 60.52 260.77 59.98 261.01C60.52 261.5 61.05 262.1 61.56 262.79C62.07 263.49 62.53 264.21 62.95 264.95C63.37 265.7 63.72 266.4 64.02 267.05C64.32 267.7 64.52 268.24 64.64 268.67V268.87H62.17C62.07 268.46 61.86 267.93 61.55 267.28C61.24 266.63 60.86 265.93 60.43 265.2C60 264.47 59.54 263.8 59.06 263.18C58.58 262.56 58.12 262.07 57.7 261.72H53.91V268.87H51.53ZM53.89 259.63H57.07C57.8 259.63 58.42 259.53 58.93 259.34C59.44 259.15 59.85 258.86 60.16 258.5C60.48 258.13 60.7 257.71 60.85 257.22C60.99 256.73 61.07 256.17 61.07 255.56C61.07 254.85 61 254.26 60.87 253.79C60.73 253.33 60.53 252.95 60.25 252.67C59.97 252.39 59.6 252.19 59.15 252.06C58.7 251.93 58.14 251.87 57.48 251.87H53.89V259.63Z" fill="#141B30"/>
<path d="M78.1801 268.87V249.78H80.5501V268.87H78.1801Z" fill="#141B30"/>
<path d="M94.4 268.101V266.031H94.6C94.86 266.101 95.18 266.181 95.57 266.271C95.96 266.361 96.38 266.451 96.83 266.531C97.28 266.611 97.73 266.681 98.17 266.731C98.61 266.781 99.01 266.801 99.37 266.801H100.16C100.77 266.801 101.32 266.741 101.82 266.631C102.31 266.511 102.73 266.331 103.08 266.071C103.43 265.811 103.7 265.481 103.88 265.071C104.07 264.661 104.16 264.171 104.16 263.591C104.16 263.091 104.1 262.671 103.97 262.321C103.84 261.971 103.66 261.681 103.42 261.451C103.18 261.221 102.9 261.031 102.57 260.881C102.24 260.731 101.83 260.601 101.36 260.481L98.76 259.811C98.23 259.661 97.74 259.471 97.27 259.251C96.8 259.031 96.37 258.721 95.96 258.331C95.55 257.941 95.23 257.451 94.98 256.871C94.73 256.291 94.61 255.611 94.61 254.831C94.61 254.051 94.75 253.401 95.03 252.771C95.31 252.151 95.72 251.611 96.26 251.161C96.8 250.711 97.46 250.371 98.22 250.121C98.98 249.881 99.83 249.761 100.77 249.761H101.36C101.7 249.761 102.08 249.781 102.51 249.821C102.93 249.861 103.36 249.921 103.78 250.001C104.2 250.081 104.59 250.161 104.94 250.261C105.29 250.351 105.55 250.451 105.74 250.551V252.541H105.54C105.3 252.461 105.01 252.381 104.67 252.301C104.33 252.221 103.97 252.151 103.57 252.081C103.18 252.011 102.79 251.951 102.4 251.911C102.01 251.871 101.66 251.851 101.36 251.851H100.77C100.16 251.851 99.62 251.911 99.15 252.031C98.68 252.151 98.29 252.321 97.96 252.571C97.64 252.811 97.39 253.121 97.22 253.501C97.05 253.881 96.96 254.341 96.96 254.871C96.96 255.331 97.03 255.731 97.18 256.051C97.32 256.371 97.52 256.651 97.77 256.861C98.02 257.081 98.3 257.251 98.61 257.381C98.92 257.511 99.31 257.651 99.77 257.781L102.24 258.481C102.83 258.651 103.37 258.841 103.84 259.051C104.32 259.271 104.76 259.571 105.16 259.951C105.57 260.331 105.9 260.831 106.14 261.431C106.39 262.041 106.51 262.771 106.51 263.631C106.51 264.431 106.37 265.151 106.08 265.801C105.79 266.451 105.37 267.011 104.82 267.471C104.27 267.931 103.6 268.291 102.81 268.531C102.02 268.771 101.13 268.891 100.15 268.891H99.36C98.99 268.891 98.56 268.861 98.07 268.811C97.58 268.761 97.1 268.691 96.62 268.611C96.14 268.531 95.7 268.441 95.3 268.341C94.9 268.251 94.6 268.161 94.4 268.101Z" fill="#141B30"/>
<path d="M136.9 268.87V249.78H143.06C144.04 249.78 144.9 249.91 145.63 250.17C146.36 250.44 146.96 250.83 147.42 251.36C147.89 251.89 148.23 252.53 148.46 253.29C148.69 254.06 148.8 254.94 148.8 255.94C148.8 256.94 148.67 257.84 148.42 258.65C148.16 259.46 147.78 260.15 147.27 260.73C146.76 261.31 146.12 261.75 145.34 262.05C144.56 262.36 143.66 262.51 142.64 262.51H139.25V268.87H136.88H136.9ZM139.27 260.42H142.66C143.42 260.42 144.06 260.32 144.57 260.1C145.08 259.89 145.47 259.58 145.74 259.18C146.01 258.78 146.2 258.32 146.3 257.79C146.4 257.26 146.45 256.65 146.45 255.93C146.45 255.21 146.39 254.61 146.27 254.1C146.15 253.59 145.96 253.17 145.7 252.84C145.44 252.51 145.07 252.26 144.6 252.1C144.13 251.94 143.55 251.86 142.85 251.86H139.26V260.41L139.27 260.42Z" fill="#141B30"/>
<path d="M159.64 268.87V268.67C160.06 266.89 160.55 265.06 161.09 263.18C161.63 261.31 162.2 259.5 162.8 257.77C163.39 256.04 163.97 254.48 164.52 253.1C165.07 251.72 165.57 250.61 166.01 249.78H169.12C169.56 250.61 170.06 251.72 170.61 253.1C171.16 254.48 171.73 256.04 172.33 257.77C172.93 259.5 173.49 261.31 174.04 263.19C174.58 265.08 175.07 266.9 175.49 268.66V268.86H173.1C173.07 268.69 172.98 268.33 172.85 267.79C172.71 267.25 172.6 266.79 172.51 266.43C172.42 266.06 172.32 265.69 172.22 265.31C172.12 264.93 172.02 264.55 171.91 264.18H163.12C163.02 264.55 162.92 264.94 162.82 265.34C162.72 265.74 162.62 266.13 162.51 266.51C162.41 266.89 162.31 267.28 162.23 267.67C162.14 268.06 162.05 268.46 161.95 268.86H159.64V268.87ZM167.51 251.76C167.17 252.41 166.83 253.12 166.49 253.91C166.15 254.7 165.82 255.54 165.51 256.42C165.2 257.3 164.89 258.21 164.58 259.16C164.28 260.1 163.98 261.08 163.69 262.1H171.3C171.01 261.1 170.72 260.13 170.42 259.18C170.12 258.24 169.81 257.33 169.49 256.44C169.17 255.56 168.84 254.72 168.51 253.94C168.18 253.15 167.84 252.42 167.51 251.76Z" fill="#141B30"/>
<path d="M188.41 268.87V249.78H189.99L200.35 263.91V249.78H202.72V268.87H201.14L190.8 254.75V268.87H188.4H188.41Z" fill="#141B30"/>
<path d="M221.64 268.87V251.87H215.66V249.78H230V251.87H224.04V268.87H221.64Z" fill="#141B30"/>
<path d="M242.93 268.87V249.78H245.3V257.75H254.67V249.78H257.04V268.87H254.67V259.84H245.3V268.87H242.93Z" fill="#141B30"/>
<path d="M271.78 263.7V249.78H282.53V251.87H274.18V257.72H281.72V259.83H274.18V263.9C274.18 264.39 274.24 264.82 274.36 265.18C274.48 265.55 274.65 265.84 274.87 266.07C275.09 266.3 275.36 266.47 275.67 266.59C275.98 266.71 276.34 266.77 276.75 266.77H282.53V268.85H276.95C276.1 268.85 275.35 268.75 274.71 268.55C274.06 268.35 273.52 268.03 273.09 267.61C272.66 267.19 272.33 266.65 272.11 266C271.89 265.35 271.78 264.58 271.78 263.7ZM275.65 247.79V247.38L278.14 243.82H280.61V244.2L277.05 247.79H275.65Z" fill="#141B30"/>
<path d="M295.33 260.101V258.551C295.33 257.181 295.5 255.961 295.85 254.871C296.19 253.781 296.71 252.851 297.37 252.101C298.04 251.341 298.88 250.761 299.88 250.361C300.88 249.961 302.02 249.761 303.29 249.761C304.56 249.761 305.72 249.951 306.7 250.331C307.68 250.721 308.51 251.281 309.19 252.031C309.87 252.781 310.38 253.701 310.72 254.791C311.06 255.881 311.23 257.131 311.23 258.551V260.101C311.23 261.471 311.06 262.691 310.72 263.781C310.38 264.871 309.87 265.801 309.19 266.551C308.51 267.311 307.67 267.891 306.68 268.291C305.69 268.691 304.55 268.891 303.28 268.891C302.01 268.891 300.85 268.701 299.86 268.311C298.87 267.931 298.03 267.361 297.36 266.611C296.69 265.861 296.18 264.941 295.84 263.851C295.49 262.761 295.32 261.511 295.32 260.091H295.33V260.101ZM297.72 260.091C297.72 261.251 297.84 262.251 298.08 263.101C298.32 263.941 298.67 264.641 299.13 265.191C299.59 265.741 300.16 266.141 300.86 266.411C301.56 266.681 302.37 266.811 303.3 266.811C304.23 266.811 305.05 266.681 305.74 266.411C306.44 266.141 307.01 265.741 307.47 265.191C307.93 264.641 308.28 263.951 308.51 263.101C308.75 262.251 308.87 261.251 308.87 260.091V258.551C308.87 257.391 308.75 256.391 308.51 255.541C308.27 254.701 307.93 254.001 307.47 253.451C307.01 252.901 306.43 252.501 305.74 252.231C305.04 251.961 304.23 251.831 303.3 251.831C302.37 251.831 301.55 251.961 300.86 252.231C300.16 252.501 299.59 252.901 299.13 253.451C298.67 254.001 298.32 254.691 298.08 255.541C297.84 256.391 297.72 257.391 297.72 258.551V260.091Z" fill="#141B30"/>
<path d="M325.2 268.87V249.78H326.78L337.14 263.91V249.78H339.51V268.87H337.93L327.59 254.75V268.87H325.19H325.2Z" fill="#141B30"/>
<path d="M353.44 260.11V258.12H360.62V260.11H353.44Z" fill="#141B30"/>
<path d="M372.13 268.87V268.67C372.55 266.89 373.04 265.06 373.58 263.18C374.12 261.31 374.69 259.5 375.29 257.77C375.88 256.04 376.46 254.48 377.01 253.1C377.56 251.72 378.06 250.61 378.5 249.78H381.61C382.05 250.61 382.55 251.72 383.1 253.1C383.65 254.48 384.22 256.04 384.82 257.77C385.42 259.5 385.98 261.31 386.53 263.19C387.07 265.08 387.56 266.9 387.98 268.66V268.86H385.59C385.56 268.69 385.47 268.33 385.34 267.79C385.2 267.25 385.09 266.79 385 266.43C384.91 266.06 384.81 265.69 384.71 265.31C384.61 264.93 384.51 264.55 384.4 264.18H375.61C375.51 264.55 375.41 264.94 375.31 265.34C375.21 265.74 375.11 266.13 375 266.51C374.89 266.89 374.8 267.28 374.72 267.67C374.63 268.06 374.54 268.46 374.44 268.86H372.13V268.87ZM380 251.76C379.66 252.41 379.32 253.12 378.98 253.91C378.64 254.7 378.31 255.54 378 256.42C377.69 257.3 377.38 258.21 377.07 259.16C376.77 260.1 376.47 261.08 376.18 262.1H383.79C383.5 261.1 383.21 260.13 382.91 259.18C382.61 258.24 382.3 257.33 381.98 256.44C381.66 255.56 381.33 254.72 381 253.94C380.67 253.15 380.33 252.42 380 251.76Z" fill="#377FBC"/>
<path d="M400.21 268.101V266.031H400.41C400.67 266.101 400.99 266.181 401.38 266.271C401.77 266.361 402.19 266.451 402.64 266.531C403.09 266.611 403.54 266.681 403.98 266.731C404.42 266.781 404.82 266.801 405.17 266.801H405.96C406.57 266.801 407.12 266.741 407.62 266.631C408.11 266.511 408.53 266.331 408.88 266.071C409.23 265.811 409.5 265.481 409.68 265.071C409.87 264.661 409.96 264.171 409.96 263.591C409.96 263.091 409.9 262.671 409.77 262.321C409.64 261.971 409.46 261.681 409.22 261.451C408.98 261.221 408.7 261.031 408.37 260.881C408.04 260.731 407.64 260.601 407.16 260.481L404.56 259.811C404.03 259.661 403.54 259.471 403.07 259.251C402.61 259.031 402.17 258.721 401.76 258.331C401.35 257.941 401.03 257.451 400.78 256.871C400.53 256.291 400.41 255.611 400.41 254.831C400.41 254.051 400.55 253.401 400.83 252.771C401.11 252.151 401.52 251.611 402.07 251.161C402.61 250.711 403.27 250.371 404.03 250.121C404.8 249.881 405.64 249.761 406.58 249.761H407.16C407.5 249.761 407.88 249.781 408.31 249.821C408.73 249.861 409.16 249.921 409.58 250.001C410 250.081 410.39 250.161 410.74 250.261C411.09 250.351 411.36 250.451 411.54 250.551V252.541H411.34C411.1 252.461 410.81 252.381 410.48 252.301C410.14 252.221 409.77 252.151 409.38 252.081C408.99 252.011 408.6 251.951 408.21 251.911C407.82 251.871 407.47 251.851 407.16 251.851H406.58C405.97 251.851 405.43 251.911 404.96 252.031C404.49 252.151 404.1 252.321 403.78 252.571C403.46 252.811 403.21 253.121 403.04 253.501C402.87 253.881 402.79 254.341 402.79 254.871C402.79 255.331 402.86 255.731 403.01 256.051C403.15 256.371 403.35 256.651 403.6 256.861C403.85 257.081 404.13 257.251 404.44 257.381C404.76 257.511 405.14 257.651 405.6 257.781L408.07 258.481C408.66 258.651 409.2 258.841 409.67 259.051C410.15 259.271 410.59 259.571 410.99 259.951C411.4 260.331 411.73 260.831 411.97 261.431C412.22 262.041 412.34 262.771 412.34 263.631C412.34 264.431 412.2 265.151 411.91 265.801C411.62 266.451 411.2 267.011 410.65 267.471C410.1 267.931 409.43 268.291 408.64 268.531C407.85 268.771 406.96 268.891 405.98 268.891H405.19C404.82 268.891 404.39 268.861 403.9 268.811C403.42 268.761 402.93 268.691 402.45 268.611C401.97 268.531 401.52 268.441 401.13 268.341C400.73 268.251 400.43 268.161 400.22 268.101H400.21Z" fill="#377FBC"/>
<path d="M424.68 268.101V266.031H424.88C425.13 266.101 425.46 266.181 425.85 266.271C426.24 266.361 426.66 266.451 427.11 266.531C427.56 266.611 428.01 266.681 428.45 266.731C428.89 266.781 429.29 266.801 429.65 266.801H430.44C431.05 266.801 431.6 266.741 432.1 266.631C432.59 266.511 433.01 266.331 433.36 266.071C433.71 265.811 433.98 265.481 434.16 265.071C434.35 264.661 434.44 264.171 434.44 263.591C434.44 263.091 434.38 262.671 434.25 262.321C434.12 261.971 433.94 261.681 433.7 261.451C433.46 261.221 433.18 261.031 432.85 260.881C432.52 260.731 432.11 260.601 431.64 260.481L429.04 259.811C428.51 259.661 428.01 259.471 427.55 259.251C427.08 259.031 426.64 258.721 426.24 258.331C425.83 257.941 425.5 257.451 425.26 256.871C425.01 256.291 424.89 255.611 424.89 254.831C424.89 254.051 425.03 253.401 425.31 252.771C425.59 252.151 426 251.611 426.54 251.161C427.08 250.711 427.74 250.371 428.5 250.121C429.26 249.881 430.11 249.761 431.05 249.761H431.63C431.97 249.761 432.35 249.781 432.78 249.821C433.21 249.861 433.63 249.921 434.05 250.001C434.47 250.081 434.86 250.161 435.21 250.261C435.56 250.351 435.83 250.451 436.01 250.551V252.541H435.81C435.57 252.461 435.28 252.381 434.94 252.301C434.6 252.221 434.24 252.151 433.84 252.081C433.45 252.011 433.06 251.951 432.67 251.911C432.28 251.871 431.93 251.851 431.62 251.851H431.04C430.43 251.851 429.89 251.911 429.42 252.031C428.95 252.151 428.56 252.321 428.23 252.571C427.91 252.811 427.66 253.121 427.49 253.501C427.32 253.881 427.23 254.341 427.23 254.871C427.23 255.331 427.3 255.731 427.45 256.051C427.59 256.371 427.79 256.651 428.03 256.861C428.28 257.081 428.56 257.251 428.87 257.381C429.18 257.511 429.57 257.651 430.03 257.781L432.5 258.481C433.09 258.651 433.63 258.841 434.1 259.051C434.58 259.271 435.02 259.571 435.43 259.951C435.84 260.331 436.16 260.831 436.41 261.431C436.66 262.041 436.78 262.771 436.78 263.631C436.78 264.431 436.63 265.151 436.35 265.801C436.06 266.451 435.64 267.011 435.09 267.471C434.54 267.931 433.87 268.291 433.08 268.531C432.29 268.771 431.4 268.891 430.42 268.891H429.63C429.26 268.891 428.83 268.861 428.34 268.811C427.85 268.761 427.37 268.691 426.89 268.611C426.41 268.531 425.96 268.441 425.57 268.341C425.17 268.251 424.87 268.161 424.66 268.101H424.68Z" fill="#377FBC"/>
<path d="M448.65 268.87V268.67C449.07 266.89 449.56 265.06 450.1 263.18C450.64 261.31 451.21 259.5 451.81 257.77C452.41 256.04 452.98 254.48 453.53 253.1C454.08 251.72 454.58 250.61 455.02 249.78H458.12C458.56 250.61 459.06 251.72 459.61 253.1C460.16 254.48 460.73 256.04 461.33 257.77C461.92 259.5 462.49 261.31 463.04 263.19C463.58 265.08 464.07 266.9 464.49 268.66V268.86H462.09C462.06 268.69 461.97 268.33 461.84 267.79C461.7 267.25 461.59 266.79 461.5 266.43C461.41 266.06 461.31 265.69 461.2 265.31C461.1 264.93 461 264.55 460.9 264.18H452.11C452.01 264.55 451.91 264.94 451.8 265.34C451.7 265.74 451.6 266.13 451.5 266.51C451.4 266.89 451.3 267.28 451.22 267.67C451.14 268.06 451.04 268.46 450.94 268.86H448.65V268.87ZM456.51 251.76C456.17 252.41 455.83 253.12 455.49 253.91C455.15 254.7 454.82 255.54 454.51 256.42C454.19 257.3 453.88 258.21 453.58 259.16C453.27 260.1 452.98 261.08 452.69 262.1H460.3C460.01 261.1 459.72 260.13 459.42 259.18C459.12 258.24 458.81 257.33 458.49 256.44C458.17 255.56 457.84 254.72 457.51 253.94C457.18 253.15 456.84 252.42 456.5 251.76H456.51Z" fill="#377FBC"/>
<path d="M476.73 268.101V266.031H476.93C477.19 266.101 477.51 266.181 477.9 266.271C478.29 266.361 478.71 266.451 479.16 266.531C479.61 266.611 480.06 266.681 480.5 266.731C480.94 266.781 481.34 266.801 481.7 266.801H482.49C483.1 266.801 483.65 266.741 484.15 266.631C484.64 266.511 485.06 266.331 485.41 266.071C485.76 265.811 486.03 265.481 486.21 265.071C486.4 264.661 486.49 264.171 486.49 263.591C486.49 263.091 486.43 262.671 486.3 262.321C486.17 261.971 485.99 261.681 485.75 261.451C485.51 261.221 485.23 261.031 484.9 260.881C484.57 260.731 484.16 260.601 483.69 260.481L481.09 259.811C480.56 259.661 480.06 259.471 479.6 259.251C479.13 259.031 478.69 258.721 478.29 258.331C477.88 257.941 477.56 257.451 477.31 256.871C477.06 256.291 476.94 255.611 476.94 254.831C476.94 254.051 477.08 253.401 477.36 252.771C477.64 252.151 478.05 251.611 478.6 251.161C479.14 250.711 479.8 250.371 480.56 250.121C481.33 249.881 482.17 249.761 483.11 249.761H483.7C484.04 249.761 484.42 249.781 484.84 249.821C485.26 249.861 485.69 249.921 486.11 250.001C486.53 250.081 486.92 250.161 487.27 250.261C487.61 250.351 487.88 250.451 488.07 250.551V252.541H487.87C487.63 252.461 487.34 252.381 487.01 252.301C486.67 252.221 486.31 252.151 485.91 252.081C485.52 252.011 485.13 251.951 484.74 251.911C484.35 251.871 484 251.851 483.7 251.851H483.11C482.5 251.851 481.96 251.911 481.49 252.031C481.02 252.151 480.63 252.321 480.3 252.571C479.98 252.811 479.73 253.121 479.56 253.501C479.39 253.881 479.31 254.341 479.31 254.871C479.31 255.331 479.38 255.731 479.53 256.051C479.67 256.371 479.87 256.651 480.11 256.861C480.36 257.081 480.64 257.251 480.95 257.381C481.26 257.511 481.65 257.651 482.11 257.781L484.58 258.481C485.17 258.651 485.71 258.841 486.18 259.051C486.66 259.271 487.1 259.571 487.5 259.951C487.91 260.331 488.24 260.831 488.48 261.431C488.73 262.041 488.85 262.771 488.85 263.631C488.85 264.431 488.71 265.151 488.42 265.801C488.13 266.451 487.71 267.011 487.16 267.471C486.61 267.931 485.94 268.291 485.15 268.531C484.36 268.771 483.47 268.891 482.49 268.891H481.7C481.33 268.891 480.9 268.861 480.41 268.811C479.93 268.761 479.44 268.691 478.96 268.611C478.48 268.531 478.03 268.441 477.63 268.341C477.23 268.251 476.93 268.161 476.73 268.101Z" fill="#377FBC"/>
<path d="M519.03 262.191V249.781H521.42V262.171C521.42 262.981 521.54 263.68 521.76 264.27C521.99 264.87 522.31 265.351 522.72 265.721C523.13 266.091 523.6 266.361 524.16 266.541C524.71 266.721 525.32 266.8 525.98 266.8C526.64 266.8 527.25 266.711 527.81 266.541C528.37 266.361 528.86 266.091 529.26 265.721C529.67 265.351 529.99 264.871 530.22 264.281C530.45 263.691 530.56 262.991 530.56 262.161V249.771H532.95V262.18C532.95 263.25 532.78 264.211 532.45 265.041C532.12 265.871 531.65 266.581 531.04 267.141C530.43 267.711 529.69 268.141 528.83 268.441C527.97 268.741 527.02 268.881 525.96 268.881C524.9 268.881 523.9 268.731 523.04 268.441C522.18 268.151 521.45 267.711 520.85 267.141C520.25 266.571 519.79 265.871 519.47 265.041C519.15 264.211 519 263.25 519 262.18H519.03V262.191Z" fill="#141B30"/>
<path d="M547.49 268.87V249.78H549.07L559.43 263.91V249.78H561.8V268.87H560.22L549.88 254.75V268.87H547.49Z" fill="#141B30"/>
<path d="M576.55 268.87V249.78H578.92V268.87H576.55Z" fill="#141B30"/>
<path d="M607.48 249.78V249.98C607.09 251.75 606.63 253.57 606.09 255.45C605.56 257.33 605 259.14 604.42 260.87C603.84 262.6 603.27 264.16 602.71 265.54C602.15 266.92 601.65 268.03 601.21 268.86H598.13C597.69 268.03 597.19 266.92 596.63 265.53C596.07 264.14 595.5 262.58 594.91 260.85C594.33 259.12 593.76 257.32 593.23 255.44C592.7 253.57 592.23 251.75 591.84 249.98V249.78H594.23C594.59 251.38 594.97 252.95 595.38 254.52C595.79 256.08 596.23 257.61 596.69 259.11C597.15 260.61 597.64 262.03 598.15 263.36C598.66 264.69 599.18 265.87 599.7 266.88C600.23 265.86 600.75 264.69 601.27 263.36C601.79 262.03 602.28 260.61 602.75 259.1C603.22 257.59 603.65 256.05 604.05 254.49C604.45 252.93 604.83 251.36 605.18 249.78H607.48Z" fill="#141B30"/>
<path d="M620.42 263.7V249.78H631.16V251.87H622.81V257.72H630.35V259.83H622.81V263.9C622.81 264.39 622.87 264.82 622.99 265.18C623.11 265.55 623.28 265.84 623.5 266.07C623.72 266.3 623.99 266.47 624.3 266.59C624.61 266.71 624.97 266.77 625.38 266.77H631.16V268.85H625.58C624.73 268.85 623.99 268.75 623.34 268.55C622.69 268.35 622.16 268.03 621.72 267.61C621.28 267.19 620.96 266.65 620.74 266C620.52 265.35 620.41 264.58 620.41 263.7H620.42Z" fill="#141B30"/>
<path d="M645.19 268.87V249.78H651.35C652.35 249.78 653.21 249.9 653.93 250.12C654.65 250.34 655.24 250.7 655.71 251.16C656.18 251.63 656.53 252.23 656.76 252.96C656.99 253.69 657.1 254.55 657.1 255.56C657.1 256.31 657.02 256.97 656.86 257.56C656.7 258.14 656.47 258.65 656.17 259.09C655.87 259.52 655.51 259.89 655.09 260.2C654.67 260.5 654.18 260.77 653.64 261.01C654.18 261.5 654.71 262.1 655.22 262.79C655.73 263.49 656.19 264.21 656.61 264.95C657.02 265.7 657.38 266.4 657.68 267.05C657.97 267.7 658.18 268.24 658.3 268.67V268.87H655.83C655.73 268.46 655.52 267.93 655.2 267.28C654.88 266.63 654.51 265.93 654.08 265.2C653.65 264.47 653.19 263.8 652.71 263.18C652.23 262.56 651.77 262.07 651.35 261.72H647.56V268.87H645.19ZM647.56 259.63H650.74C651.47 259.63 652.09 259.53 652.6 259.34C653.11 259.14 653.52 258.86 653.84 258.5C654.16 258.13 654.38 257.71 654.53 257.22C654.67 256.73 654.75 256.17 654.75 255.56C654.75 254.85 654.68 254.26 654.55 253.79C654.41 253.33 654.21 252.95 653.93 252.67C653.65 252.39 653.28 252.19 652.83 252.06C652.38 251.93 651.83 251.87 651.17 251.87H647.58V259.63H647.56Z" fill="#141B30"/>
<path d="M670.96 268.101V266.031H671.16C671.41 266.101 671.74 266.181 672.13 266.271C672.52 266.361 672.94 266.451 673.39 266.531C673.84 266.611 674.29 266.681 674.73 266.731C675.17 266.781 675.57 266.801 675.93 266.801H676.72C677.33 266.801 677.88 266.741 678.38 266.631C678.87 266.511 679.29 266.331 679.64 266.071C679.99 265.811 680.26 265.481 680.44 265.071C680.63 264.661 680.72 264.171 680.72 263.591C680.72 263.091 680.66 262.671 680.53 262.321C680.4 261.971 680.22 261.681 679.98 261.451C679.74 261.221 679.46 261.031 679.13 260.881C678.8 260.731 678.39 260.601 677.92 260.481L675.32 259.811C674.79 259.661 674.3 259.471 673.83 259.251C673.37 259.031 672.93 258.721 672.52 258.331C672.11 257.941 671.78 257.451 671.54 256.871C671.29 256.291 671.17 255.611 671.17 254.831C671.17 254.051 671.31 253.401 671.59 252.771C671.87 252.151 672.28 251.611 672.82 251.161C673.36 250.711 674.02 250.371 674.78 250.121C675.54 249.881 676.39 249.761 677.32 249.761H677.91C678.25 249.761 678.63 249.781 679.06 249.821C679.48 249.861 679.91 249.921 680.33 250.001C680.75 250.081 681.14 250.161 681.49 250.261C681.84 250.351 682.11 250.451 682.29 250.551V252.541H682.09C681.85 252.461 681.56 252.381 681.22 252.301C680.88 252.221 680.52 252.151 680.12 252.081C679.73 252.011 679.34 251.951 678.95 251.911C678.56 251.871 678.21 251.851 677.91 251.851H677.32C676.71 251.851 676.17 251.911 675.7 252.031C675.23 252.151 674.84 252.321 674.51 252.571C674.19 252.811 673.94 253.121 673.77 253.501C673.6 253.881 673.51 254.341 673.51 254.871C673.51 255.331 673.58 255.731 673.73 256.051C673.88 256.371 674.07 256.651 674.32 256.861C674.57 257.081 674.85 257.251 675.16 257.381C675.48 257.511 675.86 257.651 676.32 257.781L678.79 258.481C679.38 258.651 679.92 258.841 680.39 259.051C680.87 259.271 681.31 259.571 681.71 259.951C682.12 260.331 682.45 260.831 682.69 261.431C682.94 262.041 683.06 262.771 683.06 263.631C683.06 264.431 682.91 265.151 682.62 265.801C682.33 266.451 681.91 267.011 681.36 267.471C680.81 267.931 680.14 268.291 679.35 268.531C678.56 268.771 677.67 268.891 676.69 268.891H675.9C675.53 268.891 675.1 268.861 674.62 268.811C674.14 268.761 673.65 268.691 673.17 268.611C672.69 268.531 672.25 268.441 671.85 268.341C671.45 268.251 671.15 268.161 670.95 268.101H670.96Z" fill="#141B30"/>
<path d="M696.73 268.87V249.78H699.1V268.87H696.73Z" fill="#141B30"/>
<path d="M718.02 268.87V251.87H712.04V249.78H726.38V251.87H720.42V268.87H718.02Z" fill="#141B30"/>
<path d="M739.3 263.7V249.78H750.04V251.87H741.69V257.72H749.23V259.83H741.69V263.9C741.69 264.39 741.75 264.82 741.87 265.18C741.99 265.55 742.16 265.84 742.38 266.07C742.6 266.3 742.87 266.47 743.18 266.59C743.49 266.71 743.85 266.77 744.26 266.77H750.04V268.85H744.46C743.61 268.85 742.87 268.75 742.22 268.55C741.57 268.35 741.04 268.03 740.6 267.61C740.16 267.19 739.84 266.65 739.62 266C739.4 265.35 739.29 264.58 739.29 263.7H739.3ZM743.17 247.79V247.38L745.66 243.82H748.13V244.2L744.56 247.79H743.16H743.17Z" fill="#141B30"/>
<path d="M548.7 59.5H508.65C504.61 59.67 500.81 60.58 497.33 62.17C493.89 63.77 490.81 65.95 488.15 68.59C485.41 71.3 483.28 74.52 481.74 78.14C480.26 81.79 479.47 85.68 479.47 89.7V171.76H502.78V89.7C502.78 87.79 503.38 86.29 504.67 84.95C505.97 83.57 507.51 82.89 509.24 82.79H572.7C572.7 82.79 574.55 59.5 548.7 59.5Z" fill="#377FBC"/>
<path d="M726.76 83.2302V171.28H750.04V59.1902C750.04 59.1902 726.76 57.3602 726.76 83.2302Z" fill="#377FBC"/>
<path d="M726.76 26.47V53.57C726.76 53.57 750.04 55.4 750.04 29.55V26.46H726.76V26.47Z" fill="#377FBC"/>
<path d="M696.13 69.2997C693.43 66.5797 690.18 64.4097 686.51 62.8097C682.79 61.1997 678.85 60.3896 674.8 60.3896H616.13C611.92 60.3896 607.94 61.1997 604.29 62.8297C600.68 64.4097 597.48 66.5797 594.8 69.2997C592.1 71.9797 589.94 75.1997 588.36 78.8997C586.72 82.6197 585.92 86.5697 585.92 90.6197V141.56C585.92 145.8 586.73 149.78 588.36 153.42C589.94 157.02 592.12 160.22 594.8 162.92C597.49 165.6 600.68 167.79 604.27 169.34C607.93 170.94 611.92 171.77 616.13 171.77H676.41C702.26 171.77 698.56 148.49 698.56 148.49H616.12C614.09 148.49 612.51 147.86 611.19 146.53C609.83 145.18 609.18 143.61 609.18 141.56V129.26H674.78C678.83 129.26 682.67 128.5 686.25 126.98C689.72 125.5 692.89 123.45 695.58 120.94C698.28 118.39 700.48 115.37 702.18 111.94C703.87 108.42 704.83 104.6 704.98 100.4V90.3896C704.98 86.3296 704.17 82.4097 702.56 78.7597C700.97 75.1497 698.8 71.9697 696.11 69.2997M681.71 99.3196C681.62 101.26 680.92 102.76 679.58 104.07C678.24 105.38 676.71 105.97 674.81 105.97H609.21V90.6197C609.21 88.5997 609.85 87.0196 611.22 85.6696C612.54 84.3296 614.12 83.7096 616.15 83.7096H674.82C676.85 83.7096 678.43 84.3296 679.77 85.6696C681.1 87.0196 681.73 88.5997 681.73 90.6197V99.3196H681.71Z" fill="#377FBC"/>
<path d="M353.62 69.2997C350.93 66.5797 347.72 64.4097 344.02 62.8097C340.28 61.1997 336.35 60.3896 332.31 60.3896H273.65C269.44 60.3896 265.45 61.1997 261.79 62.8297C258.19 64.4097 255 66.5797 252.3 69.2997C249.6 71.9797 247.43 75.1997 245.84 78.8997C244.23 82.6197 243.42 86.5697 243.42 90.6197V141.56C243.42 145.8 244.23 149.78 245.84 153.42C247.43 157.02 249.6 160.22 252.3 162.92C254.99 165.6 258.18 167.79 261.78 169.34C265.45 170.94 269.43 171.77 273.65 171.77H333.94C359.79 171.77 356.05 148.49 356.05 148.49H273.65C271.61 148.49 270.04 147.86 268.7 146.53C267.34 145.18 266.72 143.61 266.72 141.56V129.26H332.32C336.36 129.26 340.21 128.5 343.78 126.98C347.28 125.5 350.44 123.45 353.13 120.94C355.83 118.39 358.04 115.37 359.74 111.94C361.4 108.42 362.37 104.6 362.51 100.4V90.3896C362.51 86.3496 361.71 82.4097 360.1 78.7597C358.51 75.1497 356.34 71.9697 353.63 69.2997M339.25 99.3196C339.14 101.26 338.47 102.76 337.08 104.07C335.73 105.38 334.23 105.97 332.32 105.97H266.72V90.6197C266.72 88.5997 267.35 87.0196 268.7 85.6696C270.04 84.3296 271.61 83.7096 273.65 83.7096H332.31C334.35 83.7096 335.9 84.3296 337.25 85.6696C338.59 87.0196 339.24 88.5997 339.24 90.6197V99.3196H339.25Z" fill="#377FBC"/>
<path d="M405.49 60.41V30.26C405.49 28.34 406.07 26.83 407.39 25.47C408.69 24.11 410.22 23.43 411.97 23.33H496.85C496.85 23.33 500.58 0 474.71 0H411.35C407.33 0.2 403.5 1.1 400.02 2.68C396.59 4.28 393.52 6.45 390.85 9.13C388.12 11.83 385.99 15.04 384.44 18.66C382.95 22.31 382.16 26.21 382.16 30.25V171.76H405.48V83.71H444.61C470.47 83.71 466.73 60.4 466.73 60.4H405.48L405.49 60.41Z" fill="#377FBC"/>
<path d="M193.48 220.14H179.25L113.63 194.26L48.01 220.14H33.78L113.63 188.65L193.48 220.14Z" fill="#377FBC"/>
<path d="M185.57 203.69L185.23 168.6C185.73 168.32 186.07 167.81 186.07 167.19C186.07 166.62 185.77 166.16 185.34 165.86C185.55 165.6 185.88 165.36 186.38 165.36L186.42 163.82C186.36 163.82 185.26 163.67 185.04 161.52H188.68L188.64 156.77H191.08L193.57 148.97L191.64 148.95L193.57 144.25H169.65V127.52L172.25 122.64L172.22 118.11L173.99 115.4L173.93 113.14H169.31L168.41 111.66C168.29 72.28 135.78 56.36 131.95 54.63L129.59 51.18L130.42 49.45H131.77L133.13 46.62L131.21 44.93L130.67 43.39H125.77L126.9 39.12H124.43L124.06 38.58L123.96 28.25C124.11 28.07 124.21 27.85 124.21 27.6C124.21 27.26 124.04 26.96 123.78 26.77V26.39H124.08L125.43 23.56H123.6L126.9 16.49H124.51C124.14 9.92 119.19 6.83 117.65 6.03V5.94H117.88L116.42 2.92C116.38 0.85 114.61 0.09 114.53 0.06L114.24 0H112.81L112.52 0.06C112.44 0.1 110.63 0.87 110.62 2.99L109.2 5.95H109.46V6.05C107.91 6.86 102.99 9.95 102.62 16.5H100.35L103.62 23.57H101.81L103.17 26.4H103.54L103.51 26.91C103.36 27.09 103.25 27.32 103.25 27.59C103.25 27.84 103.35 28.06 103.49 28.24L103.39 38.58L103.02 39.13H100.33L101.43 43.4H96.74L96.16 44.94L94.01 46.63L95.37 49.46H96.71L97.53 51.19L95.39 54.59C92.2 56.01 58.94 71.83 58.81 111.66L57.86 113.15H53.69L53.6 115.41L55.56 118.14L55.49 122.65L57.51 127.53V144.26H33.57L35.51 148.96H33.57L36.15 156.78H38.53L38.46 161.53H41.95C41.73 163.66 40.64 163.8 40.61 163.8L40.63 165.34C41.26 165.34 41.61 165.7 41.8 166.02C41.51 166.31 41.32 166.72 41.32 167.16C41.32 167.78 41.67 168.29 42.17 168.57L41.83 203.66L0.0100098 220.15H14.24L113.63 180.94L213.03 220.15H227.13L185.56 203.7L185.57 203.69ZM115.65 11.99C116.82 12 119.68 15.79 119.83 18.48V18.79H116.33V18.5C116.28 16.31 115.88 14.56 115.54 13.15C115.47 12.86 115.41 12.59 115.35 12.34L115.28 11.98H115.65V11.99ZM119.28 24.53V24.82L119.18 38.99H116.82V38.7L116.92 24.53H119.28ZM107.11 18.49C107.26 15.88 109.97 12.01 111.29 12.01H111.65L111.58 12.36C111.53 12.61 111.47 12.87 111.4 13.15C111.08 14.56 110.69 16.32 110.65 18.51V18.8H107.1V18.49H107.11ZM110.39 24.53V24.82L110.28 38.99H107.93V38.7L108.03 24.53H110.39ZM122.45 44.69L121.91 48.43H105.36L104.83 44.69H122.45ZM101.47 51.25H125.78L127.85 54.98H99.46L101.48 51.25H101.47ZM65.5 109.63C65.89 74.9 96.64 61.21 97.94 60.65H103.41C103.41 60.65 99.88 62.29 98.76 62.93C97.65 63.58 69.13 79.08 69.92 107.17H85.09C85.33 77.68 103.32 62.35 103.5 62.2L105.31 60.67H108.11L106.52 62.89C103.17 66.15 89.09 82.43 89.09 107.16H101.81C101.89 84.15 106.54 67.84 109 62.41L109.77 60.66H113.2L112.62 62.76C112.35 63.57 106.01 82.46 105.91 107.16H121.38C121.28 82.47 114.94 63.57 114.66 62.76L114.08 60.66H117.51L118.27 62.41C120.73 67.84 125.39 84.15 125.47 107.16H138.19C138.19 82.42 124.11 66.15 120.75 62.89L119.17 60.67H121.97L123.78 62.2C123.96 62.35 141.95 77.68 142.19 107.17H157.36C158.15 79.09 129.63 63.59 128.52 62.93C127.4 62.28 123.87 60.65 123.87 60.65H129.34C130.64 61.22 161.39 74.9 161.78 109.63V110.9H65.47V109.63H65.5ZM61.22 116.59H166.54V120.32H61.22V116.59ZM162.16 128.79V144.23H159.03V128.79C159.03 128.03 159.41 125.38 160.6 125.38C161.79 125.38 162.16 127.92 162.16 128.79ZM149.84 128.79V144.23H144.62V128.8C144.62 128.66 144.68 125.38 147 125.38C149.72 125.38 149.84 128.45 149.84 128.79ZM135.44 128.79V144.23H127.54V128.8C127.54 128 127.86 125.38 131.19 125.38C135.06 125.38 135.41 128 135.43 128.79H135.44ZM117.49 128.79V144.23H109.78V128.8C109.78 128 110.12 125.38 113.63 125.38C117.14 125.38 117.47 128 117.48 128.79H117.49ZM99.6 128.8V144.23H91.9V128.8C91.9 128 92.23 125.38 95.75 125.38C99.27 125.38 99.59 127.99 99.6 128.8ZM82.68 128.79V144.23H77.46V128.8C77.46 128.45 77.57 125.38 80.07 125.38C82.57 125.38 82.68 128.43 82.68 128.79ZM68.25 128.79V144.23H65.11V128.79C65.11 128.03 65.49 125.38 66.68 125.38C67.87 125.38 68.24 127.92 68.25 128.79ZM58.93 196.9L50.09 200.39L49.84 168.57C50.27 168.29 50.58 167.78 50.58 167.16C50.58 166.59 50.32 166.13 49.93 165.83C50.11 165.57 50.4 165.33 50.84 165.33L50.88 163.79C50.88 163.79 49.87 163.65 49.68 161.52H58.96C58.76 163.65 57.8 163.79 57.77 163.79V165.33C58.34 165.33 58.64 165.69 58.82 166.01C58.56 166.3 58.4 166.71 58.4 167.15C58.4 167.77 58.72 168.29 59.16 168.57L58.93 196.9ZM75.84 190.23L67 193.72L66.75 168.57C67.19 168.29 67.5 167.78 67.5 167.16C67.5 166.59 67.23 166.13 66.85 165.83C67.04 165.57 67.32 165.33 67.77 165.33L67.81 163.79C67.76 163.79 66.8 163.65 66.61 161.52H75.88C75.69 163.65 74.72 163.79 74.7 163.79V165.33C75.27 165.33 75.57 165.69 75.74 166.01C75.49 166.3 75.33 166.71 75.33 167.15C75.33 167.77 75.64 168.29 76.08 168.57L75.85 190.23H75.84ZM92.86 183.51L83.84 187.08L83.68 168.57C84.11 168.29 84.42 167.78 84.42 167.16C84.42 166.59 84.16 166.13 83.77 165.83C83.95 165.57 84.24 165.33 84.69 165.33L84.73 163.79C84.68 163.79 83.72 163.65 83.52 161.52H92.8C92.6 163.65 91.64 163.79 91.61 163.79L91.63 165.33C92.18 165.33 92.48 165.69 92.66 166.01C92.41 166.3 92.24 166.71 92.24 167.15C92.24 167.77 92.56 168.29 93 168.57L92.87 183.51H92.86ZM109.77 176.84L100.75 180.4L100.59 168.68C101.03 168.39 101.34 167.88 101.34 167.27C101.34 166.7 101.08 166.23 100.69 165.93C100.88 165.67 101.17 165.44 101.61 165.44L101.65 163.9C101.6 163.9 100.64 163.64 100.45 161.51H109.72C109.53 163.64 108.57 163.9 108.54 163.9V165.44C109.11 165.44 109.41 165.79 109.59 166.12C109.33 166.42 109.17 166.82 109.17 167.27C109.17 167.89 109.49 168.4 109.92 168.68L109.79 176.84H109.77ZM126.7 180.47L117.68 176.91L117.52 168.57C117.96 168.29 118.27 167.78 118.27 167.16C118.27 166.59 118 166.13 117.62 165.83C117.81 165.57 118.09 165.33 118.54 165.33L118.58 163.79C118.53 163.79 117.57 163.65 117.37 161.52H126.65C126.46 163.65 125.5 163.79 125.46 163.79L125.48 165.33C126.04 165.33 126.34 165.69 126.51 166.01C126.26 166.3 126.1 166.71 126.1 167.15C126.1 167.77 126.41 168.29 126.85 168.57L126.72 180.47H126.7ZM143.58 187.12L134.58 183.57L134.44 168.56C134.88 168.28 135.19 167.77 135.19 167.15C135.19 166.58 134.92 166.12 134.54 165.82C134.72 165.56 135.01 165.32 135.45 165.32L135.49 163.78C135.49 163.78 134.48 163.64 134.29 161.51H143.56C143.37 163.64 142.41 163.78 142.38 163.78V165.32C142.95 165.32 143.25 165.68 143.43 166C143.17 166.29 143.02 166.7 143.02 167.14C143.02 167.76 143.33 168.28 143.77 168.56L143.59 187.11L143.58 187.12ZM160.44 193.78L151.6 190.29L151.35 168.56C151.78 168.28 152.1 167.77 152.1 167.15C152.1 166.58 151.83 166.12 151.45 165.82C151.64 165.56 151.92 165.32 152.37 165.32L152.41 163.78C152.41 163.78 151.4 163.64 151.21 161.51H160.48C160.29 163.64 159.32 163.78 159.3 163.78V165.32C159.87 165.32 160.17 165.68 160.34 166C160.09 166.29 159.93 166.7 159.93 167.14C159.93 167.76 160.24 168.28 160.68 168.56L160.45 193.77H160.44V193.78ZM177.32 200.44L168.49 196.95L168.27 168.57C168.7 168.29 169.01 167.78 169.01 167.16C169.01 166.59 168.75 166.13 168.36 165.83C168.54 165.57 168.83 165.33 169.27 165.33L169.31 163.79C169.31 163.79 168.3 163.65 168.11 161.52H177.39C177.19 163.65 176.23 163.79 176.2 163.79L176.22 165.33C176.77 165.33 177.07 165.69 177.25 166.01C176.99 166.3 176.84 166.71 176.84 167.15C176.84 167.77 177.15 168.29 177.59 168.57L177.33 200.43L177.32 200.44ZM183.31 153.96H43.97L42.95 150.23H184.31L183.3 153.96H183.31Z" fill="#377FBC"/>
<path d="M243.87 192.22H250.34V220.42H243.87V192.22Z" fill="#377FBC"/>
<path d="M256.35 192.22H262.21L272.81 208.95V192.22H279.28V220.42H273.38L262.82 203.69V220.42H256.35V192.22Z" fill="#377FBC"/>
<path d="M283.84 207.79V204.86C283.84 195.91 290.76 191.93 298.84 191.93C301.77 191.93 304.86 192.38 307.64 193.4V199H307.34C304.56 197.95 301.02 197.53 298.54 197.53C293.84 197.53 290.61 200.16 290.61 204.86V207.79C290.61 212.04 293.39 215.12 297.64 215.12H299.11C299.79 215.12 301.18 214.97 301.78 214.86V210.42H297.65V204.86H307.65V219.11C306.18 219.67 302.65 220.73 299.12 220.73H297.65C289.3 220.73 283.85 216.18 283.85 207.8H283.84V207.79Z" fill="#377FBC"/>
<path d="M313.35 212.79V192.23H331.58V197.79H319.81V203.39H330.37V208.95H319.81V211.62C319.81 213.95 320.41 214.85 322.74 214.85H332.14V220.41H320.41C315.71 220.41 313.34 217.48 313.34 212.78H313.35V212.79ZM321.58 189.29H317.44V188.69L321.12 183.43H328.04V183.96L321.57 189.3H321.58V189.29Z" fill="#377FBC"/>
<path d="M337.6 192.22H343.46L354.06 208.95V192.22H360.53V220.42H354.63L344.07 203.69V220.42H337.6V192.22Z" fill="#377FBC"/>
<path d="M366.55 192.22H373.02V220.42H366.55V192.22Z" fill="#377FBC"/>
<path d="M379.03 212.789V192.229H397.26V197.789H385.49V203.389H396.05V208.949H385.49V211.619C385.49 213.949 386.09 214.85 388.42 214.85H397.82V220.41H386.09C381.39 220.41 379.02 217.479 379.02 212.779L379.03 212.789Z" fill="#377FBC"/>
<path d="M403.28 210.16V192.229H409.75V210.279C409.75 213.509 411.22 215.13 414.75 215.13C418.28 215.13 419.75 213.509 419.75 210.279V192.229H426.18V210.16C426.18 217.339 421.22 220.719 414.75 220.719C407.68 220.719 403.28 217.299 403.28 210.16Z" fill="#377FBC"/>
<path d="M432.22 192.22H442.52C448.95 192.22 453.08 194.29 453.08 201.62C453.08 206.13 450.86 208.39 448.53 209.85C451.46 212.18 454.58 218.31 454.85 220.11V220.41H447.78C447.33 218.79 445 213.49 442.63 212.03H438.68V220.41H432.21V192.21H432.22V192.22ZM441.32 206.62C444.85 206.62 446.32 205.45 446.32 201.92C446.32 198.39 444.85 197.79 441.32 197.79H438.69V206.62H441.32Z" fill="#377FBC"/>
<path d="M457.34 219.4V213.95H457.64C459.26 214.44 462.75 215.12 465.27 215.12H466.74C469.07 215.12 470.84 214.41 470.84 212.04C470.84 210.27 469.3 209.56 467.61 209.11L463.21 207.94C459.98 207.11 457.35 204.86 457.35 200.01C457.35 194.3 462.05 191.93 467.76 191.93H469.23C471 191.93 474.53 192.38 476.15 192.98V198.39H475.85C474.38 197.98 470.85 197.53 469.23 197.53H467.91C465.84 197.53 464.08 197.94 464.08 200.01C464.08 201.63 465.28 202.27 466.75 202.64L471.15 203.84C475.4 204.97 477.62 207.49 477.62 212.04C477.62 218.36 473.07 220.72 466.76 220.72H465.29C463.07 220.72 459.39 220.12 457.36 219.4H457.34Z" fill="#377FBC"/>
<path d="M490.84 203.949H503.77V209.249H490.84V203.949Z" fill="#377FBC"/>
<path d="M518.17 192.22H524.03L534.63 208.95V192.22H541.1V220.42H535.2L524.64 203.69V220.42H518.17V192.22Z" fill="#377FBC"/>
<path d="M547.12 210.16V192.229H553.59V210.279C553.59 213.509 555.06 215.13 558.59 215.13C562.12 215.13 563.59 213.509 563.59 210.279V192.229H570.02V210.16C570.02 217.339 565.06 220.719 558.59 220.719C551.52 220.719 547.12 217.299 547.12 210.16Z" fill="#377FBC"/>
<path d="M576.07 192.22H582.54L590.02 202.93L597.8 192.22H604.27V220.42H597.8V202.37L590.77 211.62H589L582.53 202.37V220.42H576.06V192.22H576.07Z" fill="#377FBC"/>
<path d="M610.28 212.79V192.23H628.51V197.79H616.74V203.39H627.3V208.95H616.74V211.62C616.74 213.95 617.34 214.85 619.67 214.85H629.07V220.41H617.34C612.64 220.41 610.27 217.48 610.27 212.78H610.28V212.79ZM618.51 189.29H614.38V188.69L618.06 183.43H624.98V183.96L618.51 189.3V189.29Z" fill="#377FBC"/>
<path d="M634.53 192.22H644.83C651.26 192.22 655.39 194.29 655.39 201.62C655.39 206.13 653.17 208.39 650.84 209.85C653.77 212.18 656.89 218.31 657.16 220.11V220.41H650.09C649.64 218.79 647.31 213.49 644.94 212.03H640.99V220.41H634.52V192.21H634.53V192.22ZM643.62 206.62C647.15 206.62 648.62 205.45 648.62 201.92C648.62 198.39 647.15 197.79 643.62 197.79H640.99V206.62H643.62Z" fill="#377FBC"/>
<path d="M660.5 192.22H666.97V220.42H660.5V192.22Z" fill="#377FBC"/>
<path d="M682.38 222.04V220.61C675.09 219.82 671.52 214.75 671.52 206.78V205.58C671.52 196.93 675.77 191.93 684.45 191.93C693.13 191.93 697.38 196.93 697.38 205.58V206.78C697.38 214.71 693.77 219.79 686.52 220.61V221.17C686.52 222.79 687.23 223.2 688.85 223.2C690.69 223.2 692.31 222.79 693.25 222.49H693.55V226.59C692.69 226.89 690.62 227.49 688.85 227.49C685.02 227.49 682.38 225.87 682.38 222.04ZM690.62 206.77V205.57C690.62 200.76 689.3 197.52 684.45 197.52C679.6 197.52 678.28 200.75 678.28 205.57V206.77C678.28 211.62 679.6 215.12 684.45 215.12C689.3 215.12 690.62 211.62 690.62 206.77Z" fill="#377FBC"/>
<path d="M701.93 210.16V192.229H708.4V210.279C708.4 213.509 709.87 215.13 713.4 215.13C716.93 215.13 718.4 213.509 718.4 210.279V192.229H724.83V210.16C724.83 217.339 719.87 220.719 713.4 220.719C706.33 220.719 701.93 217.299 701.93 210.16Z" fill="#377FBC"/>
<path d="M730.88 212.789V192.229H749.11V197.789H737.34V203.389H747.9V208.949H737.34V211.619C737.34 213.949 737.94 214.85 740.27 214.85H749.67V220.41H737.94C733.24 220.41 730.87 217.479 730.87 212.779H730.88V212.789Z" fill="#377FBC"/>
</g>
<defs>
<clipPath id="clip0_5333_104481">
<rect width="750.04" height="268.89" fill="white"/>
</clipPath>
</defs>
</svg>